# xmcd
#
# Track frame offsets:
#	150
#	13633
#	40962
#	63962
#	80870
#	106373
#	126284
#	150481
#	182410
#
# Disc length: 2626 seconds
#
# Revision: 0
# Processed by: cddbd v1.5.1PL0 Copyright (c) Steve Scherf et al.
# Submitted via: dBpowerAMP V4.0
#
DISCID=6d0a4009
DTITLE=Mathis and Mathematiks - 5
DYEAR=2004
DGENRE=Blues
TTITLE0=Blush
TTITLE1=4.4.2.
TTITLE2=Crush On You
TTITLE3=Did You Come
TTITLE4=Did You Come
TTITLE5=Good Cookin'
TTITLE6=Tabasco Souce
TTITLE7=Flowers
TTITLE8=B.52
EXTD=This is an Blues-new wave
EXTT0=
EXTT1=
EXTT2=
EXTT3=
EXTT4=
EXTT5=
EXTT6=
EXTT7=
EXTT8=
PLAYORDER=
